<svg width="18" height="18" viewBox="0 0 18 18" fill="none" xmlns="http://www.w3.org/2000/svg">
<g clip-path="url(#clip0_2754_21360)">
<path d="M1.56885 16.4336H14.1403" stroke="#676F7B" stroke-width="1.4" stroke-linecap="round" stroke-linejoin="round"/>
<path d="M8.42613 12.4341L4.99756 13.0512L5.56899 9.57694L13.2604 1.90837C13.3667 1.80125 13.4931 1.71623 13.6323 1.65821C13.7716 1.60018 13.921 1.57031 14.0718 1.57031C14.2227 1.57031 14.3721 1.60018 14.5114 1.65821C14.6506 1.71623 14.777 1.80125 14.8833 1.90837L16.0947 3.1198C16.2018 3.22604 16.2868 3.35244 16.3449 3.49171C16.4029 3.63098 16.4328 3.78035 16.4328 3.93122C16.4328 4.0821 16.4029 4.23147 16.3449 4.37074C16.2868 4.51001 16.2018 4.63641 16.0947 4.74265L8.42613 12.4341Z" stroke="#676F7B" stroke-width="1.4" stroke-linecap="round" stroke-linejoin="round"/>
</g>
<defs>
<clipPath id="clip0_2754_21360">
<rect width="18" height="18" fill="white" transform="translate(0.000976562)"/>
</clipPath>
</defs>
</svg>
