<svg width="16" height="16" viewBox="0 0 16 16" fill="none" xmlns="http://www.w3.org/2000/svg">
<path d="M8.49805 10.0058L5.49805 10.5458L5.99805 7.5058L11.728 1.7958C11.821 1.70207 11.9316 1.62768 12.0535 1.57691C12.1753 1.52614 12.306 1.5 12.438 1.5C12.5701 1.5 12.7008 1.52614 12.8226 1.57691C12.9445 1.62768 13.0551 1.70207 13.148 1.7958L14.208 2.8558C14.3018 2.94876 14.3762 3.05936 14.4269 3.18122C14.4777 3.30308 14.5038 3.43379 14.5038 3.5658C14.5038 3.69781 14.4777 3.82852 14.4269 3.95037C14.3762 4.07223 14.3018 4.18284 14.208 4.2758L8.49805 10.0058Z" stroke="white" stroke-width="1.4" stroke-linecap="round" stroke-linejoin="round"/>
<path d="M12.998 10.5039V13.5039C12.998 13.7691 12.8927 14.0235 12.7052 14.211C12.5176 14.3985 12.2633 14.5039 11.998 14.5039H2.49805C2.23283 14.5039 1.97848 14.3985 1.79094 14.211C1.6034 14.0235 1.49805 13.7691 1.49805 13.5039V4.00391C1.49805 3.73869 1.6034 3.48434 1.79094 3.2968C1.97848 3.10926 2.23283 3.00391 2.49805 3.00391H5.49805" stroke="white" stroke-width="1.4" stroke-linecap="round" stroke-linejoin="round"/>
</svg>
