<svg xmlns="http://www.w3.org/2000/svg" width="81" height="28" viewBox="0 0 81 28" fill="none">
  <g clip-path="url(#clip0_2441_2226)">
    <path d="M25.4974 13.3721C25.4974 14.0453 25.3258 14.5823 24.979 14.9812C24.634 15.38 24.169 15.5794 23.5801 15.5794H1.91631C1.3274 15.5794 0.862372 15.38 0.517414 14.9812C0.17055 14.5823 -0.000976562 14.0453 -0.000976562 13.3721V2.21512C-0.000976563 1.54187 0.17055 1.00683 0.517414 0.606036C0.860466 0.20722 1.32549 0.0078125 1.91631 0.0078125H23.5801C24.169 0.0078125 24.634 0.20722 24.979 0.606036C25.3258 1.00683 25.4974 1.54187 25.4974 2.21512V4.21117C25.4974 4.88244 25.3258 5.4392 24.979 5.88145C24.634 6.32173 24.1785 6.56457 23.6087 6.60603C21.2988 6.83901 19.0556 6.93772 16.8848 6.90613C14.7141 6.87454 12.4309 6.71265 10.0371 6.4165V8.72055C12.429 9.01472 14.7122 9.17662 16.8848 9.21018C19.0537 9.24177 21.2969 9.14305 23.6087 8.91008C24.1976 8.86862 24.6588 9.02657 24.9961 9.38392C25.3296 9.74128 25.4954 10.2566 25.4954 10.9279V13.3721H25.4974ZM25.4974 20.6811C25.4974 21.3543 25.3258 21.8913 24.979 22.2901C24.634 22.689 24.169 22.8884 23.5801 22.8884H17.8301V25.7926C17.8301 26.4659 17.6567 27.0009 17.3117 27.4017C16.9649 27.8005 16.4998 27.9999 15.9128 27.9999H9.58353C8.99462 27.9999 8.5296 27.8005 8.18273 27.4017C7.83777 27.0009 7.66815 26.4659 7.66815 25.7926V22.8884H1.91631C1.3274 22.8884 0.862372 22.689 0.517414 22.2901C0.17055 21.8913 -0.000976562 21.3543 -0.000976562 20.6811V18.8686C-0.000976562 18.1973 0.17055 17.6603 0.517414 17.2595C0.862372 16.8607 1.3274 16.6613 1.91631 16.6613H23.5801C24.169 16.6613 24.634 16.8607 24.979 17.2595C25.3258 17.6603 25.4974 18.1954 25.4974 18.8686V20.6811Z" fill="#8173FF"/>
    <path d="M52.8831 25.7935C52.8831 26.4668 52.7116 27.0018 52.3647 27.4026C52.0198 27.8014 51.5547 28.0008 50.9658 28.0008H29.302C28.7131 28.0008 28.2481 27.8014 27.9032 27.4026C27.5563 27.0018 27.3848 26.4668 27.3848 25.7935V21.9475C27.3848 21.2762 27.5563 20.7392 27.9032 20.3404C28.2481 19.9416 28.7131 19.7422 29.302 19.7422H50.9658C51.5547 19.7422 52.0198 19.9416 52.3647 20.3404C52.7116 20.7392 52.8831 21.2762 52.8831 21.9475V25.7935Z" fill="#8173FF"/>
    <path d="M70.5594 13.7511C70.5594 14.4244 70.3879 14.9614 70.0449 15.3602C69.698 15.759 69.233 15.9585 68.6441 15.9585H56.6868C56.0979 15.9585 55.6328 15.759 55.2879 15.3602C54.941 14.9614 54.7695 14.4244 54.7695 13.7511V8.07889C54.7695 7.40761 54.941 6.84888 55.2879 6.4086C55.6328 5.96833 56.0883 5.72548 56.6582 5.68402C57.5501 5.64256 58.4211 5.63664 59.2749 5.66823C60.1268 5.69982 61.0092 5.76892 61.9221 5.87158V4.73634C61.0092 4.6317 60.1268 4.5626 59.2749 4.53101C58.4211 4.49942 57.5482 4.50337 56.6582 4.54681C56.0693 4.58827 55.6081 4.42637 55.2745 4.05717C54.941 3.68994 54.7714 3.18057 54.7714 2.52904V2.21709C54.7714 1.54384 54.9429 1.0088 55.2898 0.60801C55.6347 0.209195 56.0998 0.00978683 56.6887 0.00978683H68.646C69.2349 0.00978683 69.6999 0.209195 70.0468 0.60801C70.3917 1.0088 70.5613 1.54384 70.5613 2.21709V7.4392C70.5613 8.11245 70.386 8.66921 70.0296 9.10949C69.6751 9.54977 69.2158 9.79261 68.646 9.83407C66.9612 9.91897 65.2097 9.85579 63.382 9.64651V10.8528C65.2097 11.0641 66.9631 11.1273 68.646 11.0424C69.2349 11.0009 69.6999 11.1628 70.0468 11.532C70.3917 11.8992 70.5613 12.4086 70.5613 13.0601V13.7531L70.5594 13.7511ZM80.2659 25.7926C80.2659 26.4659 80.0944 27.0009 79.7475 27.4017C79.4026 27.8005 78.9375 27.9999 78.3486 27.9999H56.6849C56.096 27.9999 55.6309 27.8005 55.286 27.4017C54.9391 27.0009 54.7676 26.4659 54.7676 25.7926V19.4076C54.7676 18.7363 54.9391 18.1993 55.286 17.7985C55.6309 17.3997 56.096 17.2003 56.6849 17.2003H78.3486C78.9375 17.2003 79.4026 17.3997 79.7475 17.7985C80.0944 18.1993 80.2659 18.7344 80.2659 19.4076V25.7926ZM72.0212 21.9782C70.5594 22.2921 69.0595 22.4501 67.5196 22.4501C65.9797 22.4501 64.476 22.2921 63.0161 21.9782V23.0838C64.4779 23.3977 65.9778 23.5557 67.5196 23.5557C69.0614 23.5557 70.5613 23.3977 72.0212 23.0838V21.9782ZM80.2659 13.7511C80.2659 14.4244 80.0944 14.9614 79.7475 15.3602C79.4026 15.759 78.9375 15.9585 78.3486 15.9585H73.6221C73.0332 15.9585 72.5682 15.759 72.2232 15.3602C71.8783 14.9614 71.7048 14.4244 71.7048 13.7511V2.21512C71.7048 1.54187 71.8783 1.00683 72.2232 0.606036C72.5682 0.20722 73.0332 0.0078125 73.6221 0.0078125H78.3486C78.9375 0.0078125 79.4026 0.20722 79.7475 0.606036C80.0944 1.00683 80.2659 1.54187 80.2659 2.21512V13.7511Z" fill="#8173FF"/>
    <path d="M51.0288 0H29.1211C28.0769 0 27.2305 0.876868 27.2305 1.95854V16.4975C27.2305 17.5792 28.0769 18.4561 29.1211 18.4561H51.0288C52.0729 18.4561 52.9194 17.5792 52.9194 16.4975V1.95854C52.9194 0.876868 52.0729 0 51.0288 0Z" fill="#8173FF"/>
    <path d="M32.7295 14.5688V3.6409C32.7295 3.08019 33.2498 2.67742 33.7682 2.83537L41.9862 5.34475V12.5254L33.7968 15.3645C33.2727 15.5461 32.7295 15.1414 32.7295 14.5688Z" fill="#DBD7FF"/>
    <path d="M52.9608 15.8373V2.62109L41.9717 5.44636V12.629L52.9608 15.8373Z" fill="white"/>
    <path d="M35.4534 11.1675C34.8698 11.3119 34.2703 10.983 34.2703 10.5176V7.22028C34.2703 6.76498 34.846 6.43605 35.4243 6.56241C35.8099 6.64665 36.074 6.91541 36.074 7.22028V10.5176C36.074 10.8145 35.8231 11.0772 35.4534 11.1675Z" fill="#B7AEFF"/>
  </g>
  <defs>
    <clipPath id="clip0_2441_2226">
      <rect width="80.2667" height="28" fill="white"/>
    </clipPath>
  </defs>
</svg>