<svg xmlns="http://www.w3.org/2000/svg" width="26" height="26" viewBox="0 0 26 26" fill="none">
  <g clip-path="url(#clip0_2571_14761)">
    <path d="M22.5766 4.99224C22.0233 4.43866 21.3663 3.99952 20.6433 3.69991C19.9202 3.4003 19.1452 3.24609 18.3625 3.24609C17.5798 3.24609 16.8047 3.4003 16.0817 3.69991C15.3586 3.99952 14.7016 4.43866 14.1483 4.99224L13 6.14057L11.8516 4.99224C10.734 3.87457 9.21808 3.24667 7.63747 3.24667C6.05685 3.24667 4.54097 3.87457 3.4233 4.99224C2.30563 6.1099 1.67773 7.62579 1.67773 9.2064C1.67773 10.787 2.30563 12.3029 3.4233 13.4206L4.57163 14.5689L13 22.9972L21.4283 14.5689L22.5766 13.4206C23.1302 12.8673 23.5693 12.2103 23.869 11.4872C24.1686 10.7641 24.3228 9.9891 24.3228 9.2064C24.3228 8.42371 24.1686 7.64868 23.869 6.9256C23.5693 6.20252 23.1302 5.54556 22.5766 4.99224Z" stroke="#8173FF" stroke-width="1.51667" stroke-linecap="round" stroke-linejoin="round"/>
  </g>
  <defs>
    <clipPath id="clip0_2571_14761">
      <rect width="26" height="26" fill="white"/>
    </clipPath>
  </defs>
</svg>